<?xml version="1.0" encoding="UTF-8" standalone="no"?><!-- Generator: Gravit.io --><svg xmlns="http://www.w3.org/2000/svg" xmlns:xlink="http://www.w3.org/1999/xlink" style="isolation:isolate" viewBox="0 0 500 500" width="500pt" height="500pt"><defs><clipPath id="_clipPath_vY4BOlVRuQiyBg4TIrnprXFIsL6SFhqp"><rect width="500" height="500"/></clipPath></defs><g clip-path="url(#_clipPath_vY4BOlVRuQiyBg4TIrnprXFIsL6SFhqp)"><g><circle vector-effect="non-scaling-stroke" cx="249.98692593481442" cy="250.00000000000003" r="182.03679844025768" fill="rgb(255,34,34)"/><circle vector-effect="non-scaling-stroke" cx="249.98692593481442" cy="250.00000000000003" r="182.03679844025768" fill="rgb(0,0,0)" fill-opacity="0.5"/><g style="isolation: isolate;"><circle vector-effect="non-scaling-stroke" cx="249.98692593481442" cy="250.00000000000003" r="207.03679844025768" fill="transparent" stroke-width="50" stroke="rgb(255,34,34)" stroke-linejoin="round" stroke-linecap="butt" stroke-miterlimit="1.414"/><circle vector-effect="non-scaling-stroke" cx="249.98692593481442" cy="250.00000000000003" r="182.03679844025768" fill="none"/></g><g><path d=" M 110.956 381.512 C 110.956 381.512 54.351 335.483 110.956 279.225 C 151.92 321.601 110.956 381.512 110.956 381.512 Z " fill="rgb(255,34,34)"/><path d=" M 110.956 381.512 C 110.956 381.512 54.351 335.483 110.956 279.225 C 151.92 321.601 110.956 381.512 110.956 381.512 Z " fill="rgb(0,0,0)" fill-opacity="0.3"/><path d=" M 68.302 359.594 C 68.302 359.594 61.997 297.451 102.769 269.993 C 105.621 268.072 108.646 266.279 111.844 264.612 C 132.727 338.42 68.302 359.594 68.302 359.594 Z " fill="rgb(255,34,34)"/><path d=" M 68.302 359.594 C 68.302 359.594 61.997 297.451 102.769 269.993 C 105.621 268.072 108.646 266.279 111.844 264.612 C 132.727 338.42 68.302 359.594 68.302 359.594 Z " fill="rgb(0,0,0)" fill-opacity="0.13"/><path d=" M 431.698 359.594 C 431.698 359.594 438.665 290.93 388.156 264.612 C 367.273 338.42 431.698 359.594 431.698 359.594 Z " fill="none"/><path d=" M 251.178 96.569 C 174.544 96.569 111.844 149.174 111.844 213.469 L 111.844 271.919 C 111.844 336.214 174.544 403.431 251.178 403.431 C 327.812 403.431 390.513 336.214 390.513 271.919 L 390.513 213.469 C 390.513 149.174 327.812 96.569 251.178 96.569 Z " fill="rgb(255,34,34)"/><path d=" M 389.624 283.623 C 387.891 301.144 380.916 317.955 371.363 334.022 C 367.853 335.483 365.267 337.675 361.766 339.136 C 359.154 340.583 356.567 342.073 353.946 342.789 L 345.238 345.726 C 339.995 347.889 333.908 349.38 327.821 351.542 C 322.578 353.033 316.491 354.487 311.249 355.195 C 306.05 356.686 299.963 356.686 295.608 357.395 C 290.366 358.14 286.012 358.14 280.769 358.856 C 276.415 358.856 272.061 359.594 268.595 358.856 L 251.178 358.856 C 251.178 358.856 253.791 358.856 258.998 358.14 C 261.62 358.14 264.241 357.395 267.707 356.679 C 271.216 356.679 274.682 355.195 279.036 354.487 C 283.391 353.741 287.745 353.025 292.099 351.542 C 296.453 350.088 301.696 348.634 306.903 347.18 C 312.137 344.981 316.491 343.52 321.725 341.328 C 326.079 339.136 331.278 336.93 335.632 334.022 L 342.608 329.623 C 345.22 328.17 346.962 326.716 348.704 325.262 C 353.058 322.317 356.559 319.409 360.024 316.494 C 366.991 309.904 373.087 304.052 378.329 298.229 C 384.417 292.384 387.883 287.269 389.616 283.616 L 389.624 283.623 Z  M 112.732 222.967 C 114.465 219.314 117.931 214.915 123.174 209.063 C 127.528 203.247 133.615 197.395 141.435 190.797 C 144.945 187.89 149.299 184.236 152.765 182.037 C 154.506 180.583 157.119 179.129 158.861 177.675 L 165.827 173.277 C 170.181 170.369 175.424 168.163 179.778 165.971 C 184.132 163.779 189.331 161.572 194.574 160.126 C 199.816 157.919 204.17 157.203 209.378 155.757 C 213.732 154.266 218.957 153.558 222.441 152.812 C 226.795 152.104 230.295 150.62 233.761 150.62 C 237.227 149.904 240.728 149.904 242.47 149.159 C 248.566 147.713 251.178 147.713 251.178 147.713 L 221.587 147.713 C 217.233 147.713 211.99 147.713 206.748 149.174 C 201.549 149.904 196.307 150.62 191.108 151.366 C 185.865 152.827 179.778 153.558 174.536 155.019 C 169.337 156.48 163.215 157.927 157.119 160.864 L 148.41 163.786 C 145.798 165.233 143.212 165.978 140.59 167.439 C 135.348 169.631 130.14 172.539 124.907 175.476 C 122.294 176.938 120.552 178.399 117.94 180.591 C 113.586 190.805 111.844 201.764 111.844 213.469 L 111.844 223.683 C 111.844 223.683 111.844 222.974 112.732 222.974 L 112.732 222.967 Z " fill="rgb(255,34,34)"/><path d=" M 389.624 283.623 C 387.891 301.144 380.916 317.955 371.363 334.022 C 367.853 335.483 365.267 337.675 361.766 339.136 C 359.154 340.583 356.567 342.073 353.946 342.789 L 345.238 345.726 C 339.995 347.889 333.908 349.38 327.821 351.542 C 322.578 353.033 316.491 354.487 311.249 355.195 C 306.05 356.686 299.963 356.686 295.608 357.395 C 290.366 358.14 286.012 358.14 280.769 358.856 C 276.415 358.856 272.061 359.594 268.595 358.856 L 251.178 358.856 C 251.178 358.856 253.791 358.856 258.998 358.14 C 261.62 358.14 264.241 357.395 267.707 356.679 C 271.216 356.679 274.682 355.195 279.036 354.487 C 283.391 353.741 287.745 353.025 292.099 351.542 C 296.453 350.088 301.696 348.634 306.903 347.18 C 312.137 344.981 316.491 343.52 321.725 341.328 C 326.079 339.136 331.278 336.93 335.632 334.022 L 342.608 329.623 C 345.22 328.17 346.962 326.716 348.704 325.262 C 353.058 322.317 356.559 319.409 360.024 316.494 C 366.991 309.904 373.087 304.052 378.329 298.229 C 384.417 292.384 387.883 287.269 389.616 283.616 L 389.624 283.623 Z  M 112.732 222.967 C 114.465 219.314 117.931 214.915 123.174 209.063 C 127.528 203.247 133.615 197.395 141.435 190.797 C 144.945 187.89 149.299 184.236 152.765 182.037 C 154.506 180.583 157.119 179.129 158.861 177.675 L 165.827 173.277 C 170.181 170.369 175.424 168.163 179.778 165.971 C 184.132 163.779 189.331 161.572 194.574 160.126 C 199.816 157.919 204.17 157.203 209.378 155.757 C 213.732 154.266 218.957 153.558 222.441 152.812 C 226.795 152.104 230.295 150.62 233.761 150.62 C 237.227 149.904 240.728 149.904 242.47 149.159 C 248.566 147.713 251.178 147.713 251.178 147.713 L 221.587 147.713 C 217.233 147.713 211.99 147.713 206.748 149.174 C 201.549 149.904 196.307 150.62 191.108 151.366 C 185.865 152.827 179.778 153.558 174.536 155.019 C 169.337 156.48 163.215 157.927 157.119 160.864 L 148.41 163.786 C 145.798 165.233 143.212 165.978 140.59 167.439 C 135.348 169.631 130.14 172.539 124.907 175.476 C 122.294 176.938 120.552 178.399 117.94 180.591 C 113.586 190.805 111.844 201.764 111.844 213.469 L 111.844 223.683 C 111.844 223.683 111.844 222.974 112.732 222.974 L 112.732 222.967 Z " fill="rgb(0,0,0)" fill-opacity="0.3"/><path d=" M 320.845 279.225 C 337.374 279.225 364.387 278.48 364.387 250 C 364.387 197.395 281.658 198.856 251.178 198.856 C 220.699 198.856 137.969 197.395 137.969 250 C 137.969 278.48 164.983 279.225 181.511 279.225 C 192.832 279.225 226.795 264.612 251.178 264.612 C 275.562 264.612 309.524 279.225 320.845 279.225 Z " fill="rgb(255,183,77)"/><path d=" M 329.554 221.52 L 329.554 238.295 C 329.554 248.546 319.104 257.306 306.895 257.306 C 297.341 257.306 288.633 252.192 286.012 244.886 L 329.554 221.52 Z  M 172.803 221.52 L 172.803 238.295 C 172.803 248.546 183.253 257.306 195.462 257.306 C 205.015 257.306 213.723 252.192 216.345 244.886 L 172.803 221.52 Z " fill="rgb(120,71,25)"/></g></g></g></svg>